<?xml version="1.0" encoding="utf-8"?>
<!-- Generator: Adobe Illustrator 21.1.0, SVG Export Plug-In . SVG Version: 6.00 Build 0)  -->
<svg version="1.1" id="Warstwa_1" xmlns="http://www.w3.org/2000/svg" xmlns:xlink="http://www.w3.org/1999/xlink" x="0px" y="0px"
	 viewBox="0 0 93.5 62.6" style="enable-background:new 0 0 93.5 62.6;" xml:space="preserve">
<path d="M45.8,5.9h-5.4v56.3h-5.6V5.9h-5.5V0.3h16.5V5.9z"/>
<path d="M53.7,62.2h-5.6v-62h5.6V62.2z"/>
<path d="M67.8,62.2V41.7h0.1c-0.2-1.1-1-2-2.1-2.4h-3.4v22.8h-5.6V0h5.6v33.7h3.2c1.2-0.3,2-1.2,2.2-2.3V0h5.6v31c0,2.1-0.8,4-2,5.5
	c1.3,1.4,2,3.4,2,5.5c0,0.2,0,0.3,0,20.1H67.8z"/>
<path d="M93.5,8.2v54h-5.6V16.3c-0.1,0-0.1,0-0.1,0.1V8.5c0-1.5-1.2-2.8-2.8-2.8h-2.7v56.5h-5.6V0.1h5.6v0.1H85
	C89.5,0.2,93.3,3.7,93.5,8.2L93.5,8.2z"/>
<polygon points="30.9,42 28.8,37.5 17.9,42.4 17.9,0.5 12.9,0.5 12.9,40.3 6,33.4 2.5,36.9 11.1,45.6 0,50.7 2.1,55.2 12.9,50.2 
	12.9,62.6 17.9,62.6 17.9,52.4 24.9,59.3 28.4,55.8 19.7,47.1 "/>
</svg>
